# Blender v2.76 (sub 0) OBJ File: ''
# www.blender.org
mtllib untitled.mtl
o Cube
v 0.243643 0.178523 -0.077953
v 0.308031 0.172965 -0.011776
v -0.337759 0.185878 -0.051401
v -0.342226 0.164042 -0.105490
v 0.237797 0.906206 -0.057828
v 0.250458 0.888440 -0.018781
v -0.321830 0.887192 0.002469
v -0.321352 0.904552 -0.046791
v 0.243643 0.178523 -0.077953
vt 0.000000 0.000000
vn -0.006200 -0.990500 0.137600
vn 0.008100 0.929500 0.368600
vn 0.810500 0.040900 -0.584400
vn -0.015400 -0.033500 0.999300
vn -0.999000 0.022600 0.037600
vn 0.013600 0.053500 -0.998500
usemtl Material
s off
f 1/1/1 2/1/1 3/1/1 4/1/1
f 5/1/2 8/1/2 7/1/2 6/1/2
f 1/1/3 5/1/3 6/1/3 2/1/3
f 2/1/4 6/1/4 7/1/4 3/1/4
f 3/1/5 7/1/5 8/1/5 4/1/5
f 5/1/6 1/1/6 4/1/6 8/1/6
