<svg id="Icon_Set" enable-background="new 0 0 64 64" height="512" viewBox="0 0 64 64" width="512" xmlns="http://www.w3.org/2000/svg"><path d="m40 60h-30c-1.105 0-2-.895-2-2v-52c0-1.105.895-2 2-2h30c1.105 0 2 .895 2 2v52c0 1.105-.895 2-2 2z" fill="#4e4b51"/><path d="m40 60.5h-30c-1.378 0-2.5-1.121-2.5-2.5v-52c0-1.379 1.122-2.5 2.5-2.5h30c1.378 0 2.5 1.121 2.5 2.5v52c0 1.379-1.122 2.5-2.5 2.5zm-30-56c-.827 0-1.5.673-1.5 1.5v52c0 .827.673 1.5 1.5 1.5h30c.827 0 1.5-.673 1.5-1.5v-52c0-.827-.673-1.5-1.5-1.5z" fill="#212a41"/><path d="m44 60h-30c-1.105 0-2-.895-2-2v-52c0-1.105.895-2 2-2h30c1.105 0 2 .895 2 2v52c0 1.105-.895 2-2 2z" fill="#6c696f"/><path d="m44 60.5h-30c-1.378 0-2.5-1.121-2.5-2.5v-52c0-1.379 1.122-2.5 2.5-2.5h30c1.378 0 2.5 1.121 2.5 2.5v52c0 1.379-1.122 2.5-2.5 2.5zm-30-56c-.827 0-1.5.673-1.5 1.5v52c0 .827.673 1.5 1.5 1.5h30c.827 0 1.5-.673 1.5-1.5v-52c0-.827-.673-1.5-1.5-1.5z" fill="#212a41"/><path d="m12 10h34v44h-34z" fill="#b7c0d7"/><path d="m46 54.5h-34c-.276 0-.5-.224-.5-.5v-44c0-.276.224-.5.5-.5h34c.276 0 .5.224.5.5v44c0 .276-.224.5-.5.5zm-33.5-1h33v-43h-33z" fill="#212a41"/><path d="m14 52.5c-.276 0-.5-.224-.5-.5v-40c0-.276.224-.5.5-.5s.5.224.5.5v40c0 .276-.224.5-.5.5z" fill="#d5def5"/><path d="m44 52.5c-.276 0-.5-.224-.5-.5v-40c0-.276.224-.5.5-.5s.5.224.5.5v40c0 .276-.224.5-.5.5z" fill="#99a2b9"/><path d="m38 42h-8l-6-5v-10l6-5h8l6 5v10z" fill="#db8e11"/><path d="m38 42.5h-8c-.117 0-.23-.041-.32-.116l-6-5c-.114-.095-.18-.236-.18-.384v-10c0-.148.066-.289.18-.384l6-5c.09-.075.203-.116.32-.116h8c.117 0 .23.041.32.116l6 5c.114.095.18.235.18.384v10c0 .148-.066.289-.18.384l-6 5c-.09.075-.203.116-.32.116zm-7.819-1h7.638l5.681-4.734v-9.531l-5.681-4.735h-7.638l-5.681 4.734v9.531z" fill="#212a41"/><path d="m46 42h-8l-6-5v-10l6-5h8l6 5v10z" fill="#f9ac2f"/><path d="m46 42.5h-8c-.117 0-.23-.041-.32-.116l-6-5c-.114-.095-.18-.236-.18-.384v-10c0-.148.066-.289.18-.384l6-5c.09-.075.203-.116.32-.116h8c.117 0 .23.041.32.116l6 5c.114.095.18.235.18.384v10c0 .148-.066.289-.18.384l-6 5c-.09.075-.203.116-.32.116zm-7.819-1h7.638l5.681-4.734v-9.531l-5.681-4.735h-7.638l-5.681 4.734v9.531z" fill="#212a41"/><circle cx="29" cy="57" fill="#6c696f" r="2"/><g fill="#212a41"><path d="m29 59.5c-1.378 0-2.5-1.121-2.5-2.5s1.122-2.5 2.5-2.5 2.5 1.121 2.5 2.5-1.122 2.5-2.5 2.5zm0-4c-.827 0-1.5.673-1.5 1.5s.673 1.5 1.5 1.5 1.5-.673 1.5-1.5-.673-1.5-1.5-1.5z"/><path d="m52 27.5h-28c-.276 0-.5-.224-.5-.5s.224-.5.5-.5h28c.276 0 .5.224.5.5s-.224.5-.5.5z"/><path d="m52 37.5h-28c-.276 0-.5-.224-.5-.5s.224-.5.5-.5h28c.276 0 .5.224.5.5s-.224.5-.5.5z"/><path d="m56 22.5c-.276 0-.5-.224-.5-.5v-3.5h-3.5c-.276 0-.5-.224-.5-.5s.224-.5.5-.5h4c.276 0 .5.224.5.5v4c0 .276-.224.5-.5.5z"/><path d="m20 22.5c-.276 0-.5-.224-.5-.5v-4c0-.276.224-.5.5-.5h4c.276 0 .5.224.5.5s-.224.5-.5.5h-3.5v3.5c0 .276-.224.5-.5.5z"/><path d="m24 46.5h-4c-.276 0-.5-.224-.5-.5v-4c0-.276.224-.5.5-.5s.5.224.5.5v3.5h3.5c.276 0 .5.224.5.5s-.224.5-.5.5z"/><path d="m56 46.5h-4c-.276 0-.5-.224-.5-.5s.224-.5.5-.5h3.5v-3.5c0-.276.224-.5.5-.5s.5.224.5.5v4c0 .276-.224.5-.5.5z"/></g><path d="m50 35.5c-.276 0-.5-.224-.5-.5v-6c0-.276.224-.5.5-.5s.5.224.5.5v6c0 .276-.224.5-.5.5z" fill="#db8e11"/><path d="m34 35.5c-.276 0-.5-.224-.5-.5v-6c0-.276.224-.5.5-.5s.5.224.5.5v6c0 .276-.224.5-.5.5z" fill="#ffca4d"/><path d="m26 35.5c-.276 0-.5-.224-.5-.5v-6c0-.276.224-.5.5-.5s.5.224.5.5v6c0 .276-.224.5-.5.5z" fill="#f9ac2f"/></svg>